<?xml version="1.0" encoding="utf-8"?><!DOCTYPE svg  PUBLIC '-//W3C//DTD SVG 1.1//EN'  'http://www.w3.org/Graphics/SVG/1.1/DTD/svg11.dtd'><svg xmlns="http://www.w3.org/2000/svg" xmlns:xlink="http://www.w3.org/1999/xlink"><symbol viewBox="0 0 24 24" fill="none" id="clock" xmlns="http://www.w3.org/2000/svg">
<path d="M22 12C22 17.52 17.52 22 12 22C6.48 22 2 17.52 2 12C2 6.48 6.48 2 12 2C17.52 2 22 6.48 22 12Z" stroke-width="1.5" stroke-linecap="round" stroke-linejoin="round"/>
<path d="M15.71 15.18L12.61 13.33C12.07 13.01 11.63 12.24 11.63 11.61V7.51001" stroke-width="1.5" stroke-linecap="round" stroke-linejoin="round"/>
</symbol><symbol id="close" style="enable-background:new 0 0 512 512;" viewBox="0 0 512 512" xml:space="preserve" xmlns="http://www.w3.org/2000/svg"><path d="M437.5,386.6L306.9,256l130.6-130.6c14.1-14.1,14.1-36.8,0-50.9c-14.1-14.1-36.8-14.1-50.9,0L256,205.1L125.4,74.5  c-14.1-14.1-36.8-14.1-50.9,0c-14.1,14.1-14.1,36.8,0,50.9L205.1,256L74.5,386.6c-14.1,14.1-14.1,36.8,0,50.9  c14.1,14.1,36.8,14.1,50.9,0L256,306.9l130.6,130.6c14.1,14.1,36.8,14.1,50.9,0C451.5,423.4,451.5,400.6,437.5,386.6z"/></symbol><symbol viewBox="0 0 24 24" fill="none" id="email" xmlns="http://www.w3.org/2000/svg">
<path d="M17 20.5H7C4 20.5 2 19 2 15.5V8.5C2 5 4 3.5 7 3.5H17C20 3.5 22 5 22 8.5V15.5C22 19 20 20.5 17 20.5Z" stroke-width="1.5" stroke-miterlimit="10" stroke-linecap="round" stroke-linejoin="round"/>
<path d="M17 9L13.87 11.5C12.84 12.32 11.15 12.32 10.12 11.5L7 9" stroke-width="1.5" stroke-miterlimit="10" stroke-linecap="round" stroke-linejoin="round"/>
</symbol><symbol viewBox="0 0 48 48" fill="none" id="fb" xmlns="http://www.w3.org/2000/svg">
<circle cx="24" cy="24" r="23.5" stroke="var(--clr-icon-primary)"/>
<path fill="var(--clr-icon-primary)" d="M21.3359 18.832V20.64H16.6799V23.504H20.2479V25.28H16.6799V30H14.4399V18.832H21.3359ZM25.1643 22.432C25.4523 22.0053 25.847 21.6587 26.3483 21.392C26.8603 21.1253 27.4416 20.992 28.0923 20.992C28.8496 20.992 29.5323 21.1787 30.1403 21.552C30.759 21.9253 31.2443 22.4587 31.5963 23.152C31.959 23.8347 32.1403 24.6293 32.1403 25.536C32.1403 26.4427 31.959 27.248 31.5963 27.952C31.2443 28.6453 30.759 29.184 30.1403 29.568C29.5323 29.952 28.8496 30.144 28.0923 30.144C27.431 30.144 26.8496 30.016 26.3483 29.76C25.8576 29.4933 25.463 29.152 25.1643 28.736V30H22.9243V18.16H25.1643V22.432ZM29.8523 25.536C29.8523 25.0027 29.7403 24.544 29.5163 24.16C29.303 23.7653 29.015 23.4667 28.6523 23.264C28.3003 23.0613 27.9163 22.96 27.5003 22.96C27.095 22.96 26.711 23.0667 26.3483 23.28C25.9963 23.4827 25.7083 23.7813 25.4843 24.176C25.271 24.5707 25.1643 25.0347 25.1643 25.568C25.1643 26.1013 25.271 26.5653 25.4843 26.96C25.7083 27.3547 25.9963 27.6587 26.3483 27.872C26.711 28.0747 27.095 28.176 27.5003 28.176C27.9163 28.176 28.3003 28.0693 28.6523 27.856C29.015 27.6427 29.303 27.3387 29.5163 26.944C29.7403 26.5493 29.8523 26.08 29.8523 25.536Z"/>
</symbol><symbol viewBox="0 0 36 24" id="icon_menu" xmlns="http://www.w3.org/2000/svg">
<rect width="36" height="3"/>
<rect y="10.5" width="36" height="3"/>
<rect x="18" y="21" width="18" height="3"/>
</symbol><symbol viewBox="0 0 48 48" fill="none" id="lg" xmlns="http://www.w3.org/2000/svg">
<circle cx="24" cy="24" r="23.5" stroke="var(--clr-icon-primary)"/>
<path d="M18.6956 18.832V30H16.4556V18.832H18.6956ZM24.3807 20.992C25.042 20.992 25.6234 21.1253 26.1247 21.392C26.626 21.648 27.0207 21.984 27.3087 22.4V21.136H29.5647V30.064C29.5647 30.8853 29.3994 31.616 29.0687 32.256C28.738 32.9067 28.242 33.4187 27.5807 33.792C26.9194 34.176 26.1194 34.368 25.1807 34.368C23.922 34.368 22.8874 34.0747 22.0767 33.488C21.2767 32.9013 20.8234 32.1013 20.7167 31.088H22.9407C23.058 31.4933 23.3087 31.8133 23.6927 32.048C24.0874 32.2933 24.562 32.416 25.1167 32.416C25.7674 32.416 26.2954 32.2187 26.7007 31.824C27.106 31.44 27.3087 30.8533 27.3087 30.064V28.688C27.0207 29.104 26.6207 29.4507 26.1087 29.728C25.6074 30.0053 25.0314 30.144 24.3807 30.144C23.634 30.144 22.9514 29.952 22.3327 29.568C21.714 29.184 21.2234 28.6453 20.8607 27.952C20.5087 27.248 20.3327 26.4427 20.3327 25.536C20.3327 24.64 20.5087 23.8453 20.8607 23.152C21.2234 22.4587 21.7087 21.9253 22.3167 21.552C22.9354 21.1787 23.6234 20.992 24.3807 20.992ZM27.3087 25.568C27.3087 25.024 27.202 24.56 26.9887 24.176C26.7754 23.7813 26.4874 23.4827 26.1247 23.28C25.762 23.0667 25.3727 22.96 24.9567 22.96C24.5407 22.96 24.1567 23.0613 23.8047 23.264C23.4527 23.4667 23.1647 23.7653 22.9407 24.16C22.7274 24.544 22.6207 25.0027 22.6207 25.536C22.6207 26.0693 22.7274 26.5387 22.9407 26.944C23.1647 27.3387 23.4527 27.6427 23.8047 27.856C24.1674 28.0693 24.5514 28.176 24.9567 28.176C25.3727 28.176 25.762 28.0747 26.1247 27.872C26.4874 27.6587 26.7754 27.36 26.9887 26.976C27.202 26.5813 27.3087 26.112 27.3087 25.568Z" fill="var(--clr-icon-primary)"/>
</symbol><symbol viewBox="0 0 24 24" fill="none" id="map" xmlns="http://www.w3.org/2000/svg">
<path d="M22 9.00002V15C22 17.5 21.5 19.25 20.38 20.38L14 14L21.73 6.27002C21.91 7.06002 22 7.96002 22 9.00002Z" stroke-width="1.5" stroke-linecap="round" stroke-linejoin="round"/>
<path d="M21.73 6.27L6.26999 21.73C3.25999 21.04 2 18.96 2 15V9C2 4 4 2 9 2H15C18.96 2 21.04 3.26 21.73 6.27Z" stroke-width="1.5" stroke-linecap="round" stroke-linejoin="round"/>
<path d="M20.38 20.38C19.25 21.5 17.5 22 15 22H9.00003C7.96003 22 7.06002 21.91 6.27002 21.73L14 14L20.38 20.38Z" stroke-width="1.5" stroke-linecap="round" stroke-linejoin="round"/>
<path d="M6.24002 7.97997C6.92002 5.04997 11.32 5.04997 12 7.97997C12.39 9.69997 11.31 11.16 10.36 12.06C9.67001 12.72 8.58003 12.72 7.88003 12.06C6.93003 11.16 5.84002 9.69997 6.24002 7.97997Z" stroke-width="1.5"/>
<path d="M9.0946 8.69995H9.10359" stroke-width="2" stroke-linecap="round" stroke-linejoin="round"/>
</symbol><symbol viewBox="0 0 24 24" id="phone" xmlns="http://www.w3.org/2000/svg">
<path d="M21.97 18.33C21.97 18.69 21.89 19.06 21.72 19.42C21.55 19.78 21.33 20.12 21.04 20.44C20.55 20.98 20.01 21.37 19.4 21.62C18.8 21.87 18.15 22 17.45 22C16.43 22 15.34 21.76 14.19 21.27C13.04 20.78 11.89 20.12 10.75 19.29C9.6 18.45 8.51 17.52 7.47 16.49C6.44 15.45 5.51 14.36 4.68 13.22C3.86 12.08 3.2 10.94 2.72 9.81C2.24 8.67 2 7.58 2 6.54C2 5.86 2.12 5.21 2.36 4.61C2.6 4 2.98 3.44 3.51 2.94C4.15 2.31 4.85 2 5.59 2C5.87 2 6.15 2.06 6.4 2.18C6.66 2.3 6.89 2.48 7.07 2.74L9.39 6.01C9.57 6.26 9.7 6.49 9.79 6.71C9.88 6.92 9.93 7.13 9.93 7.32C9.93 7.56 9.86 7.8 9.72 8.03C9.59 8.26 9.4 8.5 9.16 8.74L8.4 9.53C8.29 9.64 8.24 9.77 8.24 9.93C8.24 10.01 8.25 10.08 8.27 10.16C8.3 10.24 8.33 10.3 8.35 10.36C8.53 10.69 8.84 11.12 9.28 11.64C9.73 12.16 10.21 12.69 10.73 13.22C11.27 13.75 11.79 14.24 12.32 14.69C12.84 15.13 13.27 15.43 13.61 15.61C13.66 15.63 13.72 15.66 13.79 15.69C13.87 15.72 13.95 15.73 14.04 15.73C14.21 15.73 14.34 15.67 14.45 15.56L15.21 14.81C15.46 14.56 15.7 14.37 15.93 14.25C16.16 14.11 16.39 14.04 16.64 14.04C16.83 14.04 17.03 14.08 17.25 14.17C17.47 14.26 17.7 14.39 17.95 14.56L21.26 16.91C21.52 17.09 21.7 17.3 21.81 17.55C21.91 17.8 21.97 18.05 21.97 18.33Z" stroke-width="1.5" stroke-miterlimit="10"/>
<path d="M18.5 9C18.5 8.4 18.03 7.48 17.33 6.73C16.69 6.04 15.84 5.5 15 5.5" stroke-width="1.5" stroke-linecap="round" stroke-linejoin="round"/>
<path d="M22 9C22 5.13 18.87 2 15 2" stroke-width="1.5" stroke-linecap="round" stroke-linejoin="round"/>
</symbol><symbol viewBox="0 0 48 48" fill="none" id="tw" xmlns="http://www.w3.org/2000/svg">
<circle cx="24" cy="24" r="23.5" stroke="var(--clr-icon-primary)"/>
<path d="M12.6448 20.64H15.6208V30H17.8608V20.64H20.8368V18.832H12.6448V20.64ZM24.0872 30H26.5192L28.1352 23.808L29.7512 30H32.1672L34.7592 21.136H32.6152L31.0472 27.872L29.3832 21.136H27.0152L25.3192 27.888L23.7512 21.136H21.4792L24.0872 30Z" fill="var(--clr-icon-primary)"/>
</symbol><symbol viewBox="0 0 48 48" fill="none" id="yt" xmlns="http://www.w3.org/2000/svg">
<circle cx="24" cy="24" r="23.5" stroke="var(--clr-icon-primary)"/>
<path d="M19.2805 26.112V30H21.5205V26.112L25.2965 18.832H22.8005L20.4165 23.936L18.0165 18.832H15.4885L19.2805 26.112ZM26.9404 27.248C26.9404 29.28 28.0764 30 29.7724 30H31.1804V28.112H30.1404C29.4364 28.112 29.1964 27.856 29.1964 27.264V22.976H31.1804V21.136H29.1964V18.944H26.9404V21.136H25.8844V22.976H26.9404V27.248Z" fill="var(--clr-icon-primary)"/>
</symbol></svg>